HIERARCHY
ROOT Bip001_Pelvis
{
  OFFSET 34.4345 95.6767 -26.8758
  CHANNELS 6 Xposition Yposition Zposition Zrotation Xrotation Yrotation
  JOINT Bip001_Spine
  {
    OFFSET 1.4188e-005 10.2191 -0.0116013
    CHANNELS 3 Zrotation Xrotation Yrotation
    JOINT Bip001_L_Thigh
    {
      OFFSET 11.0458 -10.2192 0.0116197
      CHANNELS 3 Zrotation Xrotation Yrotation
      JOINT Bip001_L_Calf
      {
        OFFSET -0.707118 -44.0221 0.360014
        CHANNELS 3 Zrotation Xrotation Yrotation
        JOINT Bip001_L_Foot
        {
          OFFSET -0.651902 -40.5938 -3.56146
          CHANNELS 3 Zrotation Xrotation Yrotation
          JOINT Bip001_L_Toe0
          {
            OFFSET 0.0530839 -10.2181 13.1504
            CHANNELS 3 Zrotation Xrotation Yrotation
            End Site
            {
              OFFSET -1.02532e-005 0 7.55606
            }
          }
        }
      }
    }
    JOINT Bip001_R_Thigh
    {
      OFFSET -11.0458 -10.2191 0.0115893
      CHANNELS 3 Zrotation Xrotation Yrotation
      JOINT Bip001_R_Calf
      {
        OFFSET 0.706994 -44.0221 0.35984
        CHANNELS 3 Zrotation Xrotation Yrotation
        JOINT Bip001_R_Foot
        {
          OFFSET 0.651786 -40.5938 -3.5613
          CHANNELS 3 Zrotation Xrotation Yrotation
          JOINT Bip001_R_Toe0
          {
            OFFSET -0.0531479 -10.2181 13.1504
            CHANNELS 3 Zrotation Xrotation Yrotation
            End Site
            {
              OFFSET -1.02894e-005 0 7.55606
            }
          }
        }
      }
    }
    JOINT Bip001_Spine1
    {
      OFFSET 1.87041e-005 14.5736 1.08638
      CHANNELS 3 Zrotation Xrotation Yrotation
      JOINT Bip001_Spine2
      {
        OFFSET 2.24614e-005 14.5058 -1.69078
        CHANNELS 3 Zrotation Xrotation Yrotation
        JOINT Bip001_Neck
        {
          OFFSET 2.20278e-005 15.3945 -0.489414
          CHANNELS 3 Zrotation Xrotation Yrotation
          JOINT Bip001_L_Clavicle
          {
            OFFSET 6.06036 -0.000579998 0.00836775
            CHANNELS 3 Zrotation Xrotation Yrotation
            JOINT Bip001_L_UpperArm
            {
              OFFSET 11.5509 -0.0600302 0.00193952
              CHANNELS 3 Zrotation Xrotation Yrotation
              JOINT Bip001_L_Forearm
              {
                OFFSET 25.9523 0.0806089 -2.15551
                CHANNELS 3 Zrotation Xrotation Yrotation
                JOINT Bip001_L_Hand
                {
                  OFFSET 32.2475 0.153767 1.63968
                  CHANNELS 3 Zrotation Xrotation Yrotation
                  JOINT Bip001_L_Finger0
                  {
                    OFFSET 6.04639 -2.20976 5.90322
                    CHANNELS 3 Zrotation Xrotation Yrotation
                    End Site
                    {
                      OFFSET 4.22375 -1.43895 0.606485
                    }
                  }
                  JOINT Bip001_L_Finger1
                  {
                    OFFSET 11.0826 -0.704819 -0.198153
                    CHANNELS 3 Zrotation Xrotation Yrotation
                    End Site
                    {
                      OFFSET 6.20027 -0.397518 -0.0787166
                    }
                  }
                }
              }
            }
          }
          JOINT Bip001_R_Clavicle
          {
            OFFSET -6.06037 -0.000563197 0.00835105
            CHANNELS 3 Zrotation Xrotation Yrotation
            JOINT Bip001_R_UpperArm
            {
              OFFSET -11.5509 -0.0599978 0.00190698
              CHANNELS 3 Zrotation Xrotation Yrotation
              JOINT Bip001_R_Forearm
              {
                OFFSET -25.9523 0.0806822 -2.15589
                CHANNELS 3 Zrotation Xrotation Yrotation
                JOINT Bip001_R_Hand
                {
                  OFFSET -32.2475 0.153859 1.63989
                  CHANNELS 3 Zrotation Xrotation Yrotation
                  JOINT Bip001_R_Finger0
                  {
                    OFFSET -6.04641 -2.20976 5.90317
                    CHANNELS 3 Zrotation Xrotation Yrotation
                    End Site
                    {
                      OFFSET -4.22376 -1.43895 0.60647
                    }
                  }
                  JOINT Bip001_R_Finger1
                  {
                    OFFSET -11.0826 -0.704794 -0.198182
                    CHANNELS 3 Zrotation Xrotation Yrotation
                    End Site
                    {
                      OFFSET -6.20028 -0.397504 -0.0787333
                    }
                  }
                }
              }
            }
          }
          JOINT Bip001_Head
          {
            OFFSET 1.09673e-005 11.2744 2.05948
            CHANNELS 3 Zrotation Xrotation Yrotation
            End Site
            {
              OFFSET 2.89576e-005 20.8808 -2.77728e-005
            }
          }
        }
      }
    }
  }
}
MOTION
Frames:	16
Frame Time:	0.04
33.4091 94.9383 -29.8161 -1.72864 -0.664663 10.4691 0.104895 2.59097 0.157677 8.90257 -10.4464 6.50657 -1.3928 19.7999 -6.65001 2.15255 -9.32474 0.0836067 0.839285 -4.18338 -0.369704 -2.38946 -2.67249 -0.644201 1.15385 12.3289 -0.934792 -9.14674 -8.03067 -8.00069 3.20056 -10.3544 3.12467 0.202975 5.18224 0.311083 0.202974 5.18221 0.311081 2.82199 -6.01958 -2.22013 -24.9408 7.9482 -4.09163 -52.0627 43.2511 6.11291 15.991 -2.44091 -27.6905 8.02254 0.807461 -3.87571 4.41391e-031 -1.59028e-014 1.59028e-015 -3.18055e-015 -1.27222e-014 -0 17.5682 13.1954 21.5771 33.1927 -63.1258 -6.91023 -48.4521 -13.3018 109.717 -37.9263 -2.46958 -1.51139 3.18055e-015 1.98785e-016 1.54058e-015 3.18055e-015 9.93924e-017 1.93815e-015 -5.48276 3.64297 -0.0590981 
33.411 94.9561 -29.8842 -1.88759 0.286749 12.7205 -0.00361332 2.52986 0.446285 8.53603 -12.0016 4.84509 -1.08814 19.6523 -7.80619 2.74609 -8.53645 0.0777745 0.839514 -4.52013 -0.289638 -2.21466 -3.02068 -1.26402 1.35564 11.8087 -1.27808 -9.41741 -7.6234 -9.40864 3.24201 -10.4428 3.11886 -0.027031 5.05962 0.89404 -0.0270319 5.05962 0.894044 3.37552 -7.04351 -4.11631 -25.4413 8.15228 -2.42975 -51.7833 42.6871 5.8377 15.9287 -2.14927 -28.1795 9.06267 0.927362 -3.84648 4.77083e-015 3.18055e-015 -3.18055e-015 4.77083e-015 0 -0 15.9157 14.7325 23.9554 41.4722 -60.8003 3.97517 -49.574 -12.8474 108.39 -37.8248 -2.59152 -1.57223 3.18055e-015 7.95139e-016 1.59028e-015 3.18055e-015 -7.95139e-016 7.95139e-016 -5.92045 4.39866 -1.60773 
33.3611 95.0015 -29.953 -2.15849 1.41014 15.2754 -0.0792761 2.4814 0.645952 8.19086 -13.7716 3.52469 -0.73317 19.4588 -9.19141 2.53795 -8.16081 0.0634947 0.754576 -4.39434 -0.207188 -1.97736 -3.43758 -1.61776 1.53726 11.0287 -1.7477 -9.6481 -7.04676 -11.1551 3.25418 -10.4704 3.11664 -0.186862 4.96175 1.29718 -0.186863 4.96169 1.29718 3.77349 -8.22901 -5.89888 -26.187 8.53928 -0.821539 -50.9773 41.5469 5.45321 14.9131 -2.41448 -28.9812 9.19081 1.14516 -4.02569 -0 0 3.18055e-015 1.59028e-015 3.18056e-015 3.18055e-015 14.1604 16.3747 26.6748 46.8749 -56.0128 13.1183 -51.3201 -11.1325 105.273 -36.3778 -3.71924 -1.55123 3.18055e-015 -3.18055e-015 7.95139e-016 3.18055e-015 -3.18056e-015 1.59028e-015 -6.09058 5.15052 -3.15614 
33.1291 95.0906 -30.0255 -2.53006 2.48022 18.0427 -0.136471 2.4699 0.752428 8.12382 -15.4633 2.25316 -0.756244 18.9595 -10.5678 1.84734 -7.75847 0.0434387 0.52248 -4.03542 -0.0656 -1.59814 -3.80162 -1.60419 1.74607 10.0394 -2.15371 -9.99761 -6.2544 -13.2736 3.194 -10.3336 3.11202 -0.302021 4.9379 1.51251 -0.303932 4.93799 1.51253 4.5961 -9.19202 -7.5686 -27.4192 8.64351 0.661925 -50.7736 40.4793 5.52819 14.1187 -3.79777 -29.5067 8.91624 1.01215 -3.95184 6.36111e-015 3.18055e-015 -0 4.77083e-015 6.36111e-015 -0 11.6112 17.5219 29.8456 45.7919 -45.8416 19.5254 -54.1106 -4.56079 96.1357 -39.2914 -6.05509 -2.49863 3.18055e-015 -3.18055e-015 1.59028e-015 -0 0 1.59028e-015 -6.71909 6.09938 -4.35853 
32.8439 95.1566 -30.0262 -2.83559 3.04886 20.6125 -0.103447 2.52338 0.871636 8.04199 -16.664 2.8015 -0.238347 18.5382 -13.5902 0.99789 -7.56956 0.0275926 0.333011 -3.53343 0.0379402 -1.24954 -3.91773 -1.60144 1.92371 9.37732 -2.54825 -10.3225 -5.58222 -15.1903 3.15368 -10.1932 3.03886 -0.245707 5.04491 1.75038 -0.245711 5.04492 1.75039 4.96155 -9.49657 -8.97371 -28.3425 8.41108 1.21666 -50.8231 40.0428 6.34022 13.5605 -4.8261 -29.9778 8.67521 0.563415 -3.99055 -3.18055e-015 3.18055e-015 -0 0 3.18056e-015 -0 8.24268 17.1403 31.7387 69.0563 -53.7977 39.04 -47.9091 -4.20464 96.5539 -20.8015 -11.9935 2.21118 -3.18055e-015 6.36111e-015 -3.18055e-015 -3.18055e-015 6.36111e-015 -3.18055e-015 -6.9823 7.24922 -5.47052 
32.704 95.24 -30.1211 -2.77651 3.7378 21.8961 -0.319101 2.57484 0.639671 7.71993 -17.1956 3.02144 0.177775 17.4553 -14.7712 0.712608 -6.91996 0.0196925 0.307027 -3.43274 0.0447249 -1.28963 -4.61288 -1.2085 2.17361 9.51686 -2.77227 -10.4636 -5.3451 -16.3335 3.15122 -10.1264 2.94842 -0.67324 5.14598 1.29535 -0.670654 5.1466 1.29574 8.95638 -7.68481 -10.2543 -30.1578 5.67708 0.996023 -52.9189 38.5412 8.36273 13.0649 -5.51243 -30.357 8.50308 0.578208 -3.65944 1.59028e-015 -9.54166e-015 1.59028e-015 1.59028e-015 -9.54167e-015 -0 7.04112 14.6566 27.6709 71.3472 -50.2877 42.8248 -51.1813 -6.06476 97.8896 -18.4768 -8.80469 1.46461 -3.18055e-015 6.36111e-015 -0 -6.36111e-015 3.18056e-015 -0 -10.1579 6.27977 -5.02314 
33.013 95.4279 -30.2288 -1.67186 3.60527 18.9577 -0.520961 2.54468 -0.0293757 7.12781 -14.7946 5.63199 0.597326 15.2432 -14.057 0.403803 -6.29177 0.0161135 0.252344 -3.22336 0.0779805 -2.53577 -4.96159 -1.73493 2.16614 10.432 -2.53067 -9.70546 -6.1115 -13.3112 3.13996 -10.1318 3.00324 -1.01552 5.08889 -0.0418836 -1.0291 5.0887 -0.0398624 10.1857 -4.8333 -9.5469 -29.9482 2.81084 1.16414 -58.0183 35.9869 13.8248 13.4755 -4.29195 -30.5479 8.93719 0.902823 -3.75466 3.97569e-015 0 1.59028e-015 3.18055e-015 0 -0 7.60472 12.0116 27.4774 61.8296 -42.3732 41.1448 -48.8381 -2.74492 94.3011 -20.137 -7.98339 1.21083 3.18055e-015 -9.54166e-015 -3.18055e-015 6.36111e-015 -9.54167e-015 -0 -10.9207 6.03055 -3.52358 
33.1561 95.6667 -30.3314 -1.19935 2.83475 11.2333 -0.196566 2.51976 -0.162179 7.48719 -11.2862 8.79925 0.0281281 13.6149 -9.71667 -0.10869 -6.40367 0.0145046 -0.0496006 -2.90516 0.437995 -3.24659 -5.44526 -1.30091 1.36163 10.4592 -1.70242 -8.04673 -6.53639 -7.6831 2.95785 -9.71873 2.98641 -0.389836 5.03986 -0.308267 -0.38788 5.04001 -0.312072 4.39313 -4.42443 -5.45876 -25.9537 4.25737 0.827663 -61.3727 36.9226 16.4946 15.118 -1.20603 -28.4995 6.2435 0.524555 -5.90699 -2.38542e-015 0 -0 -1.59028e-015 3.18056e-015 1.59028e-015 7.9554 10.7647 28.7221 58.1051 -34.4142 40.1512 -53.0639 0.682594 91.0087 -26.3469 -8.27968 1.17914 -3.18055e-015 -3.18055e-015 6.36111e-015 3.18055e-015 -6.36111e-015 6.36111e-015 -7.28827 6.63288 -2.11264 
32.9979 95.7635 -30.4131 -1.44265 2.78945 3.24564 0.0953046 2.57225 0.539153 8.47141 -9.19277 9.64401 -1.40828 13.1447 -2.90166 -1.09279 -7.54317 0.0188917 -0.379946 -2.13347 0.705361 -3.07557 -6.6363 -0.0147778 0.594648 9.95969 -0.304952 -6.73878 -6.53391 -3.48468 2.74507 -9.15556 2.87493 0.166576 5.1462 1.07565 0.166579 5.14594 1.07565 1.34363 -6.1908 -3.46842 -25.296 7.17716 -0.944914 -60.3927 39.179 15.7318 15.2927 1.02282 -24.1102 1.68956 -0.604295 -7.04592 2.38542e-015 -3.18055e-015 7.95139e-016 1.59028e-015 -3.18056e-015 -0 9.67407 12.0682 26.9105 53.6508 -26.6966 39.8948 -55.4616 2.82294 87.8373 -32.8804 -8.79387 0.800456 -3.18055e-015 -9.54166e-015 3.18055e-015 -0 -6.36111e-015 -0 -4.51244 7.26765 -1.70289 
33.1278 95.8461 -30.2415 -1.15157 1.95679 -1.59154 0.283462 2.56034 0.921973 7.53229 -6.34624 6.55361 -1.53526 11.4095 4.85563 -2.60418 -8.11613 -0.000629423 -0.66937 -1.11033 0.847384 -3.77583 -6.15211 -1.64778 0.0936513 9.40298 0.204227 -5.15132 -7.065 1.64548 2.54969 -8.59606 2.71816 0.526392 5.1249 1.834 0.526391 5.1249 1.834 0.442115 -5.33531 -2.94839 -25.3602 7.07677 -2.9391 -61.3714 42.9115 15.7528 15.8331 -0.432451 -20.7965 -1.28479 0.17044 -4.51344 3.97569e-016 -3.18055e-015 -0 3.97569e-016 -3.18056e-015 -0 11.7246 11.4851 26.5278 49.5508 -20.6742 37.1703 -54.5052 3.36384 83.6803 -29.5531 -7.02827 1.81007 -6.36111e-015 3.18055e-015 -0 -9.54166e-015 6.36111e-015 -0 -4.12009 6.1124 -1.5879 
33.0906 95.9229 -30.1651 -1.00281 1.47286 -4.48848 0.309592 2.47999 0.784236 6.44475 -4.16088 8.14248 0.0759202 9.35714 5.50563 -2.51852 -6.9926 0.0259046 -0.616082 -1.69873 0.934707 -4.04382 -5.91633 -1.15426 0.138978 9.09322 0.445172 -4.29361 -7.12371 3.63792 2.35652 -8.03756 2.56655 0.592732 4.96384 1.55908 0.58938 4.96386 1.55788 0.241176 -5.71368 -2.10401 -24.1833 7.62931 -3.17568 -60.4587 41.1224 13.4718 16.0639 2.05739 -20.2023 -0.973392 1.57141 -1.23271 -1.98785e-015 6.36111e-015 -1.98785e-015 -1.98785e-015 3.18056e-015 -3.57812e-015 13.5839 12.4278 26.9295 46.3208 -15.2882 32.8469 -52.6719 3.81756 79.1384 -29.5816 -7.82106 2.34956 -0 0 3.18055e-015 -3.18055e-015 -3.18056e-015 -0 -3.43579 7.01753 -0.985879 
32.8307 95.9403 -30.0895 -0.658694 0.873652 -6.05422 0.142796 2.42964 0.455447 6.33748 -2.22397 12.8214 0.394047 7.69702 2.61624 -2.97881 -6.63462 0.0288732 -0.73285 -1.59294 1.01688 -4.16505 -5.52659 -0.253216 0.219483 9.12112 0.568325 -3.93415 -7.45251 4.53361 2.20158 -7.56928 2.42361 0.268049 4.86097 0.905501 0.262673 4.86082 0.905951 0.697533 -5.72119 -1.39609 -23.4519 7.55047 -2.84682 -58.1666 38.9019 10.8582 16.3467 4.21695 -20.9325 0.93809 2.55691 -0.602414 2.38542e-015 0 2.38542e-015 2.38542e-015 -3.18056e-015 1.98785e-015 17.0099 13.6273 27.2635 41.2455 -9.93666 26.4925 -50.696 4.34329 75.5227 -32.0442 -8.93691 3.0702 3.18055e-015 -1.59028e-015 -0 3.18055e-015 -3.18056e-015 -0 -2.69021 7.50905 -0.406753 
32.5951 95.9566 -30.0605 -0.385038 -0.153513 -6.33418 0.104273 2.46184 0.0857543 6.33891 -0.584167 14.1588 0.00184651 6.76664 2.56308 -4.23428 -6.96626 0.00281949 -0.893404 -0.807666 0.982109 -4.43077 -4.73405 0.102906 0.340865 9.42837 0.540374 -3.82769 -7.84941 4.95639 2.1155 -7.28101 2.30309 0.20122 4.92379 0.167808 0.207247 4.9238 0.167344 0.678302 -4.89718 -1.05133 -23.2208 6.77333 -2.92957 -55.6259 40.9942 8.4516 15.8554 1.54867 -21.3064 3.53159 2.29286 -1.54143 -4.41391e-032 -3.18055e-015 -7.95139e-016 -1.59028e-015 -3.18056e-015 7.95139e-016 19.8875 13.698 27.3438 37.2996 -4.23574 18.8094 -48.535 5.13188 72.9263 -33.4578 -9.06275 3.11969 3.18055e-015 0 -3.18055e-015 3.18055e-015 -3.18056e-015 -6.36111e-015 -2.01672 7.09971 -0.250219 
32.3338 95.9266 -30.0823 -0.270197 -0.822983 -6.28011 0.109826 2.54742 -0.0564224 5.88233 0.0777847 13.1767 0.503776 6.25484 3.22842 -3.03293 -5.78982 0.0403548 -0.22701 -1.91322 0.449158 -4.46261 -4.30667 0.236195 0.340171 9.77573 0.307022 -3.83826 -8.25618 5.18128 2.07102 -7.15854 2.28501 0.222219 5.09472 -0.117912 0.221027 5.09472 -0.117909 1.73882 -4.59882 -1.35564 -24.5226 6.4929 -3.27666 -51.8979 42.9786 5.43576 15.1157 -2.62339 -22.4726 6.08717 1.40464 -2.35403 3.18055e-015 -3.18055e-015 1.59028e-015 3.18055e-015 -3.18056e-015 -0 20.5599 13.6278 26.4199 35.9053 2.37145 12.1701 -49.1965 6.90842 70.0539 -33.3484 -9.33254 2.96972 -3.18055e-015 1.59028e-015 -0 -3.18055e-015 3.18056e-015 -1.59028e-015 -2.5744 6.66482 -0.153696 
32.1533 95.8822 -30.1326 0.0146522 -1.10392 -6.19404 0.112677 2.58477 -0.120836 5.31528 0.505309 13.6701 0.994795 5.48274 1.93528 -1.66863 -4.48239 0.0485383 0.164784 -3.2609 0.324945 -4.78001 -4.26744 0.10861 0.497143 10.1888 0.23616 -3.7087 -8.70483 5.3789 2.0238 -7.01481 2.24438 0.231171 5.16931 -0.247155 0.231172 5.16931 -0.247159 2.09213 -4.469 -1.55085 -24.8436 6.56233 -4.13394 -48.0783 42.9903 1.73803 14.2899 -5.20849 -24.0628 8.83904 0.807423 -3.32332 -3.18055e-015 -3.18055e-015 -0 0 0 -0 21.0608 13.4537 25.3658 36.2135 10.0525 6.33833 -48.3517 8.43575 64.8579 -30.5616 -9.98868 3.96522 2.38542e-015 -4.17448e-015 -0 3.18055e-015 -3.97569e-015 -1.59028e-015 -2.66381 6.78191 -0.211497 
31.8739 95.9037 -30.2232 -0.185106 -1.43078 -6.10333 0.127866 2.61362 -0.17805 5.84138 0.944735 13.1003 0.550646 5.24941 2.56171 -2.06027 -4.55906 0.0502249 0.0660585 -3.09012 0.399417 -4.51183 -3.61329 -0.00440033 0.545133 9.47772 0.0836988 -3.53012 -8.57042 5.63135 1.96506 -6.85695 2.21576 0.281522 5.22598 -0.362885 0.281297 5.22598 -0.36291 2.50023 -4.05537 -1.53688 -24.8558 6.15578 -4.32814 -44.5558 42.2201 -2.22542 13.9307 -5.76123 -25.5806 11.3102 -0.0701492 -4.3034 0 0 -1.59028e-015 -3.18055e-015 0 -0 21.518 13.0972 24.8015 38.1373 18.2548 1.00395 -46.0299 10.2688 57.5056 -26.9835 -9.99098 4.38292 -7.95139e-016 -1.0138e-014 -7.95139e-016 -7.95139e-016 -8.34896e-015 -7.95139e-016 -2.56535 6.66665 -0.117507 
